<svg width="25" height="25" viewBox="0 0 25 25" fill="none" xmlns="http://www.w3.org/2000/svg">
<path d="M12.5004 5.99805C8.97222 5.99805 6.04883 8.87103 6.04883 12.4497C6.04883 16.0283 8.92181 18.9013 12.5004 18.9013C16.0791 18.9013 18.9521 15.9779 18.9521 12.4497C18.9521 8.92143 16.0287 5.99805 12.5004 5.99805ZM12.5004 16.5827C10.2323 16.5827 8.36738 14.7178 8.36738 12.4497C8.36738 10.1815 10.2323 8.31659 12.5004 8.31659C14.7686 8.31659 16.6335 10.1815 16.6335 12.4497C16.6335 14.7178 14.7686 16.5827 12.5004 16.5827Z" fill="white"/>
<path d="M19.2039 7.3084C20.0112 7.3084 20.6656 6.65397 20.6656 5.8467C20.6656 5.03943 20.0112 4.38501 19.2039 4.38501C18.3966 4.38501 17.7422 5.03943 17.7422 5.8467C17.7422 6.65397 18.3966 7.3084 19.2039 7.3084Z" fill="white"/>
<path d="M22.9839 2.06653C21.6734 0.705645 19.8085 0 17.6915 0H7.30847C2.92339 0 0 2.92339 0 7.30847V17.6411C0 19.8085 0.705645 21.6734 2.11694 23.0343C3.47782 24.3448 5.29234 25 7.35887 25H17.6411C19.8085 25 21.623 24.2944 22.9335 23.0343C24.2944 21.7238 25 19.8589 25 17.6915V7.30847C25 5.19153 24.2944 3.37702 22.9839 2.06653ZM22.7823 17.6915C22.7823 19.254 22.2278 20.5141 21.3206 21.371C20.4133 22.2278 19.1532 22.6815 17.6411 22.6815H7.35887C5.84677 22.6815 4.58669 22.2278 3.67944 21.371C2.77218 20.4637 2.31855 19.2036 2.31855 17.6411V7.30847C2.31855 5.79637 2.77218 4.53629 3.67944 3.62903C4.53629 2.77218 5.84677 2.31855 7.35887 2.31855H17.7419C19.254 2.31855 20.5141 2.77218 21.4214 3.67944C22.2782 4.58669 22.7823 5.84677 22.7823 7.30847V17.6915Z" fill="white"/>
</svg>
