<svg width="40" height="33" viewBox="0 0 40 33" fill="none" xmlns="http://www.w3.org/2000/svg">
<path d="M40 3.84792C38.5295 4.50155 36.947 4.94245 35.2865 5.13976C36.9819 4.1248 38.2819 2.5171 38.8949 0.599233C37.3091 1.5403 35.5537 2.22317 33.6837 2.5918C32.1872 0.997097 30.0542 0 27.6938 0C23.1622 0 19.4881 3.67416 19.4881 8.20656C19.4881 8.84883 19.5603 9.47486 19.7008 10.0765C12.8803 9.73388 6.83271 6.46733 2.78505 1.50214C2.07864 2.7136 1.67428 4.12317 1.67428 5.62856C1.67428 8.47533 3.12283 10.9876 5.32489 12.4588C3.98027 12.4158 2.71441 12.0464 1.6077 11.4317C1.60689 11.4658 1.60689 11.5007 1.60689 11.5356C1.60689 15.511 4.43578 18.8271 8.19033 19.5822C7.50178 19.769 6.77669 19.8697 6.02805 19.8697C5.49865 19.8697 4.98467 19.8185 4.48369 19.7219C5.52869 22.982 8.55896 25.3553 12.1495 25.4211C9.34089 27.6224 5.80314 28.9345 1.95766 28.9345C1.2959 28.9345 0.642267 28.8955 0 28.8192C3.63275 31.1487 7.94592 32.5063 12.5798 32.5063C27.6751 32.5063 35.9288 20.002 35.9288 9.15738C35.9288 8.80174 35.9215 8.44691 35.9061 8.09451C37.5089 6.93989 38.9006 5.49378 40 3.84792Z" fill="white"/>
</svg>
